<?xml version="1.0" encoding="utf-8"?>
<!-- Generator: Adobe Illustrator 27.5.0, SVG Export Plug-In . SVG Version: 6.00 Build 0)  -->
<svg version="1.1" id="Layer_1" xmlns="http://www.w3.org/2000/svg" xmlns:xlink="http://www.w3.org/1999/xlink" x="0px" y="0px"
	 viewBox="0 0 50 50" style="enable-background:new 0 0 50 50;" xml:space="preserve">
<style type="text/css">
	.st0{fill-rule:evenodd;clip-rule:evenodd;fill:#D1D921;}
	.st1{fill-rule:evenodd;clip-rule:evenodd;fill:#69730A;}
	.st2{fill-rule:evenodd;clip-rule:evenodd;fill:#FFFFFF;}
</style>
<g>
	<path class="st0" d="M40.2,32.6l-4.3,2.1l-4.7,1l-4.4-2l-2.8,1c0,0-3.9,0.7-6.2-0.1c0,0,0,0,0,0c-1.6-0.5-3.2-2.2-3.9-3.1
		c-0.3-0.4-0.5-0.7-0.5-0.7s3-0.7,3.1-0.7c0.1,0,2.1,0.5,3.9,0.8c0,0,0,0,0,0c1.7,0.2,2.7,0.8,2.8,0.8c-0.2-0.1-1.4-1.1-3.2-3.3
		c-1.9-2.4-4.6-7.6-4.7-7.8c0,0,0,0,0,0L14.4,19l6.3,4.1c0,0,1.7,3.2,2.4,4.1c0.1,0.1,0.1,0.2,0.2,0.3c0.5,0.7,1.5,2.3,2,3.2
		c0.2,0.3,0.3,0.5,0.4,0.6c-0.1-0.1-0.2-0.5-0.3-1.1c-0.2-0.9-0.5-2.3-0.5-4.5c0-3.3,0.8-10.9,1-13.4c0,0,0,0,0,0
		c0-0.5,0.1-0.8,0.1-0.8s1.4,3.1,1.5,3.3c0.1,0.2,1.3,6.2,1.3,6.2l-0.1,4.6c0,0-0.3,0.3-0.3,0.9c0,0.2,0,0.3,0,0.5v0
		c0,0.1,0,0.2,0,0.3c0,0.8-0.3,2.3-0.5,3.2c-0.1,0.4-0.1,0.6-0.1,0.7c0-0.1,0.3-0.6,0.7-1.3c0.6-1.1,1.5-2.5,2.3-3.4
		c1.5-1.5,6-6.1,6-6.1l0.9-0.5l0.2,1.5L35,26.9l-2.1,3.2c0,0-0.6-0.2-1.2,0.5c0,0-0.1,0.1-0.1,0.1c-0.6,0.7-1.8,1.5-1.8,1.5
		s0.7-0.1,3.1-0.3c2.5-0.2,6.4,0,6.4,0l0.1,0L40.2,32.6z"/>
	<path class="st1" d="M18.2,13.1c0,0-0.1,0-0.1,0c0,0-0.1,0.1-0.1,0.1c-0.3,2.2,0.3,4.5,2.2,5.7c0,0,0.1,0,0.1,0
		c0,0,0.1-0.1,0.1-0.1C20.6,16.4,20.2,14.6,18.2,13.1z M33.9,13.2c0,0,0-0.1-0.1-0.1c0,0-0.1,0-0.1,0c-2,1.5-2.4,3.3-2.2,5.6
		c0,0,0,0.1,0.1,0.1c0,0,0.1,0,0.1,0C33.6,17.7,34.2,15.4,33.9,13.2z M41.9,31.9c-1.7-1.4-4.3-2.3-6.5-2.4c0,0-0.1,0-0.1-0.1
		c0,0,0-0.1,0-0.1c2.3-3.6,3.2-7.5,3.4-11.8c0,0,0-0.1-0.1-0.1s-0.1,0-0.1,0c-2.6,1.1-6.9,3.7-8.5,6.1c0,0.1-0.1,0.1-0.2,0.1
		c-0.1,0-0.1-0.1-0.1-0.1c0.4-4.3-1.1-12-3.6-15.2c0,0-0.1-0.1-0.1-0.1c0,0-0.1,0-0.1,0.1c-2.6,3.1-4,10.8-3.6,15.2
		c0,0.1,0,0.1-0.1,0.1c-0.1,0-0.1,0-0.2-0.1c-1.6-2.5-5.9-5.1-8.5-6.1c0,0-0.1,0-0.1,0c0,0-0.1,0.1-0.1,0.1
		c0.2,4.2,1.1,8.2,3.4,11.8c0,0,0,0.1,0,0.1c0,0-0.1,0.1-0.1,0.1c-2.2,0.1-4.8,1-6.5,2.4c0,0,0,0.1,0,0.1s0,0.1,0,0.1
		c3.6,3.4,10.5,5.7,15,3c0,0,0.1,0,0.1,0c0,0,0.1,0.1,0.1,0.1l-0.6,3.3c0,0,0,0.1,0,0.1c0,0,0.1,0,0.1,0l1.2,0c0,0,0,0,0,0l1.2,0
		c0,0,0.1,0,0.1,0c0,0,0-0.1,0-0.1l-0.6-3.3c0-0.1,0-0.1,0.1-0.1c0,0,0.1,0,0.2,0c4.5,2.7,11.4,0.4,15-3c0,0,0-0.1,0-0.1
		C41.9,32,41.9,32,41.9,31.9z M17.7,34.7c-1.9-0.4-3.7-1.3-5.2-2.5c0,0-0.1-0.1,0-0.1c0,0,0-0.1,0.1-0.1c0.4-0.1,0.8-0.3,1.2-0.3
		c2.1-0.5,4.3-0.6,6.4-0.6c0,0,0,0,0,0c0,0,0.1,0,0.1-0.1c0,0,0-0.1,0-0.1c-2.9-3.6-3.9-5.5-5.2-10c0,0,0-0.1,0-0.1c0,0,0,0,0,0
		c0,0,0,0,0-0.1c0,0,0.1,0,0.2,0c3,1.5,5.7,4,7.8,6.6c0.1,0.1,0.1,0.2,0.2,0.3c0,0,0.1,0.1,0.1,0.1c0,0,0.1,0.1,0.2,0
		c0.1,0,0.1-0.1,0.1-0.1c-0.3-5.2,0.5-10.1,2.2-15c0,0,0,0,0.1-0.1c0,0,0,0,0,0c0,0,0,0,0.1,0c0.1,0,0.1,0,0.1,0.1
		c1.6,4.7,2.4,9.3,2.2,14.2c0,0.2,0,0.3,0,0.5v0c0,0.1,0,0.2,0,0.3c0,0,0,0,0,0.1c0,0,0,0.1,0.1,0.1c0.1,0,0.1,0,0.2,0
		c2.1-2.7,4.9-5.4,8-7c0.1,0,0.1,0,0.2,0c0,0,0.1,0.1,0,0.1c-1.3,4.4-2.3,6.4-5.1,9.8c0,0-0.1,0.1-0.1,0.1c0,0,0,0,0,0
		c0,0,0,0.1,0,0.1c0,0,0.1,0.1,0.1,0.1c2.5,0,5.3,0.1,7.7,0.9c0,0,0,0,0.1,0c0,0,0,0,0,0.1c0,0.1,0,0.1,0,0.1c-3,2.6-7.3,3.6-11,2
		c-0.1,0-0.1-0.1-0.1-0.2c0-0.1,0.1-0.1,0.1-0.1c1.8-0.1,4-0.3,5.9-0.8c0.1,0,0.1-0.1,0.1-0.2c0-0.1-0.1-0.1-0.2-0.1
		c-2.1,0.2-4.5,0-6.6-0.3c0,0-0.1,0-0.1-0.1c0,0,0-0.1,0-0.1c2.3-2.6,4.1-4.6,5.9-7.4c0-0.1,0-0.1,0-0.2c-0.1,0-0.1,0-0.2,0
		c-1.7,1.7-3.4,3.5-5,5.3c-0.2,0.2-0.4,0.4-0.5,0.6c-0.3,0.3-0.6,0.7-0.9,1c0,0-0.1,0.1-0.2,0c-0.1,0-0.1-0.1-0.1-0.1
		c-0.2-3.6-0.4-7.2-0.6-10.9c0-0.1-0.1-0.1-0.1-0.1c-0.1,0-0.1,0.1-0.1,0.1c-0.2,3.2-0.4,6.3-0.5,9.5c0,0.1,0,0.3,0,0.4
		c0,0.3,0,0.6,0,1c0,0.1,0,0.1-0.1,0.1c-0.1,0-0.1,0-0.1,0c-2.1-2.3-4.2-4.8-6.4-7c0-0.1-0.1-0.1-0.2,0c-0.1,0-0.1,0.1,0,0.2
		c1.9,2.8,3.7,4.9,5.9,7.4c0,0,0,0.1,0,0.1c0,0-0.1,0.1-0.1,0.1c-2,0.2-4.4,0.4-6.6,0.3c-0.1,0-0.1,0-0.1,0.1c0,0.1,0,0.1,0.1,0.2
		c1.8,0.5,4,0.7,5.9,0.8c0.1,0,0.1,0,0.1,0.1c0,0.1,0,0.1-0.1,0.2C21.7,34.9,19.7,35.1,17.7,34.7C17.7,34.7,17.7,34.7,17.7,34.7z
		 M43.3,25.7c0,0-0.1-0.1-0.1-0.1c-1.9,0-3.8,0.6-4.9,2.2c0,0,0,0.1,0,0.1c0,0,0,0.1,0.1,0.1c1.4,0.7,4-0.8,5-2.1
		C43.3,25.8,43.3,25.7,43.3,25.7z M13.6,27.8c-1.1-1.6-3-2.2-4.9-2.2c-0.1,0-0.1,0-0.1,0.1c0,0,0,0.1,0,0.1c1,1.3,3.6,2.8,5,2.1
		c0,0,0.1,0,0.1-0.1C13.7,27.8,13.7,27.8,13.6,27.8z"/>
	<path class="st2" d="M39.3,31.9c0,0-3.9-0.3-6.4,0c-2.5,0.2-3.1,0.3-3.1,0.3s1.2-0.8,1.8-1.5c0,0,0,0,0,0c0,0,0,0.1,0,0.1
		c0,0,0.1,0.1,0.1,0.1C34.2,31,36.9,31.1,39.3,31.9z"/>
	<path class="st2" d="M17.7,34.7c-1.9-0.4-3.7-1.3-5.2-2.5c0,0-0.1-0.1,0-0.1c0,0,0-0.1,0.1-0.1c0.4-0.1,0.8-0.3,1.2-0.3
		C14.6,32.5,16.1,34.2,17.7,34.7z"/>
	<path class="st2" d="M20.4,30.9c0,0,0-0.1,0-0.1c-2.9-3.6-3.9-5.5-5.2-10c0,0,0-0.1,0-0.1c0.1,0.2,2.8,5.4,4.7,7.8
		c1.8,2.2,3.1,3.2,3.2,3.3c-0.1-0.1-1.1-0.6-2.8-0.8C20.3,31,20.3,30.9,20.4,30.9z"/>
	<path class="st2" d="M24.8,25.8c0,2.1,0.2,3.6,0.5,4.5c0,0.1,0,0.3,0,0.4c-0.5-0.9-1.5-2.6-2-3.2c0,0,0.1,0.1,0.1,0.1
		c0,0,0.1,0.1,0.2,0c0.1,0,0.1-0.1,0.1-0.1c-0.3-5.2,0.5-10.1,2.2-15c0,0,0,0,0.1-0.1C25.6,14.8,24.8,22.4,24.8,25.8z"/>
	<path class="st2" d="M36.6,20.6c0,0-4.5,4.6-6,6.1c-0.8,0.9-1.7,2.3-2.3,3.4c-0.2,0.2-0.4,0.4-0.5,0.6c0.2-0.9,0.5-2.4,0.5-3.2
		c0,0,0,0.1,0.1,0.1c0.1,0,0.1,0,0.2,0C30.6,24.8,33.4,22.1,36.6,20.6z"/>
</g>
</svg>
